<svg version="1.1" xmlns="http://www.w3.org/2000/svg" viewBox="0 0 512 512">
    <path fill="#23B0FF"
          d="
M316.468658,513.000000 
	C315.713531,512.356628 315.560486,511.264893 315.121399,511.134247 
	C294.960297,505.134399 286.028870,489.775299 280.971039,470.877747 
	C276.215027,453.108032 271.006561,435.459564 266.012390,417.753418 
	C257.643402,388.082611 249.354950,358.388824 240.893127,328.744537 
	C237.129013,315.557709 233.015457,302.470825 229.101822,289.326233 
	C228.872437,288.555786 229.013779,287.674957 229.025360,286.103424 
	C230.083389,284.061859 230.974472,282.638245 232.131638,281.480591 
	C322.619751,190.953964 413.122528,100.441971 503.684204,9.988970 
	C505.368256,8.306936 507.771179,7.344669 510.018433,6.376845 
	C511.132111,7.138073 512.066040,7.569036 513.000000,7.999999 
	C513.000000,13.354930 513.000000,18.709860 512.693604,24.201077 
	C511.953217,24.820658 511.286469,25.234461 511.118408,25.797186 
	C502.388916,55.028992 493.726807,84.280922 485.003357,113.514542 
	C475.023621,146.958160 465.009460,180.391571 454.980408,213.820450 
	C445.009918,247.054123 434.988770,280.272583 425.014618,313.505157 
	C414.339081,349.074890 403.724792,384.662994 393.020020,420.223907 
	C387.439178,438.763367 381.337219,457.155365 376.177185,475.809387 
	C371.396912,493.090454 361.609406,505.270203 344.380859,511.073395 
	C343.773193,511.278046 343.453766,512.338440 343.000000,513.000000 
	C334.312439,513.000000 325.624878,513.000000 316.468658,513.000000 
z"/>
    <path fill="#02D9FF"
          d="
M509.838684,6.046566 
	C507.771179,7.344669 505.368256,8.306936 503.684204,9.988970 
	C413.122528,100.441971 322.619751,190.953964 232.131638,281.480591 
	C230.974472,282.638245 230.083389,284.061859 228.981934,285.694946 
	C214.075943,281.688171 199.272446,277.290985 184.431702,273.023346 
	C169.574509,268.750916 154.678970,264.611816 139.802246,260.407288 
	C114.540863,253.267761 89.258270,246.201889 64.030464,238.945602 
	C51.972450,235.477371 39.699112,232.436264 28.109779,227.751007 
	C16.657639,223.121231 8.556480,214.213928 3.982748,202.457169 
	C3.300358,200.703094 2.386669,199.039017 1.289991,197.666656 
	C1.000000,189.312439 1.000000,180.624863 1.290020,171.801971 
	C2.338835,170.284332 3.324305,168.978622 3.821294,167.507843 
	C8.679379,153.130829 19.058956,143.674576 32.827049,139.269547 
	C65.244301,128.897812 98.039497,119.709709 130.662857,109.979233 
	C164.060287,100.017860 197.439178,89.994186 230.818802,79.973183 
	C264.042542,69.998978 297.258789,59.999729 330.475220,50.001301 
	C364.773621,39.677197 399.052673,29.288422 433.371216,19.031847 
	C450.673187,13.860926 468.055115,8.957795 485.361847,3.802488 
	C486.731323,3.394558 487.794464,1.958326 489.000000,0.999992 
	C494.354919,1.000000 499.709869,1.000000 505.205353,1.237022 
	C506.843506,2.998214 508.341095,4.522384 509.838684,6.046566 
z"/>
</svg>