<svg xmlns="http://www.w3.org/2000/svg" height="20" viewBox="0 -960 960 960" width="20">
    <path d="M228.309-164.001q-26.623 0-45.465-18.843-18.843-18.842-18.843-45.465v-503.382q0-26.623 18.843-45.465 18.842-18.843 45.465-18.843H408.54q5.308-25.23 24.461-42.46Q452.154-855.69 480-855.69q27.076 0 46.422 17.231 19.346 17.23 24.653 42.46h180.616q26.623 0 45.465 18.843 18.843 18.842 18.843 45.465v503.382q0 26.623-18.843 45.465-18.842 18.843-45.465 18.843H228.309Zm0-51.999h503.382q4.616 0 8.463-3.846 3.846-3.847 3.846-8.463v-503.382q0-4.616-3.846-8.463-3.847-3.846-8.463-3.846h-79.692v104.614H308.001V-744h-79.692q-4.616 0-8.463 3.846-3.846 3.847-3.846 8.463v503.382q0 4.616 3.846 8.463 3.847 3.846 8.463 3.846Zm251.48-523.384q13.672 0 23.018-9.136 9.347-9.135 9.347-22.807 0-13.672-9.136-23.018t-22.807-9.346q-13.672 0-23.018 9.135-9.347 9.136-9.347 22.808t9.136 23.018q9.136 9.346 22.807 9.346Z"/>
</svg>