<svg viewBox="0 0 512 512">
   <path
      fill="#4cdaff"
      opacity="1"
      stroke="none"
      d="M 191.58096,178.90844 C 181.22853,177.2394 170.35781,176.828 160.64,173.61906 c -16.30165,-5.38311 -25.08357,-17.69719 -28.19693,-32.42081 -0.95683,-4.52495 1.818,-11.2976 5.53806,-14.74879 35.71037,-33.12913 72.02834,-65.732932 108.06602,-98.580566 5.87206,-5.352278 10.55451,-4.874423 16.41533,0.329092 34.60018,30.71978 69.48798,61.179696 104.20391,91.795344 10.81583,9.53839 12.38921,25.19383 3.20245,36.21688 -2.01931,2.42289 -2.13268,2.46314 -5.66085,6.9244 -3.58177,4.14176 -3.90069,4.17358 -7.28418,5.84866 -4.85563,2.68129 -6.21424,3.91164 -10.06059,4.72394 -10.52891,2.22348 -21.21217,3.86172 -32.78635,5.63429 -4.77527,-0.0521 -8.5985,-0.006 -13.2622,-0.42804 -12.87148,-0.129 -24.90255,0.2086 -37.93948,0.43552 -6.40251,-0.0396 -11.79908,0.0317 -17.98552,-0.389 -13.90268,-0.32891 -27.01558,-0.16592 -41.21874,0.0722 -4.75683,0.008 -8.42341,-0.0575 -12.08997,-0.12361 z"
      id="path2"
      style="display:inline;stroke-width:2.19205" />
   <path
      fill="#3178d9"
      opacity="1"
      stroke="none"
      d="m 69.484412,300.25285 c -22.849291,1.67153 -41.875307,-4.50319 -50.746616,-24.43348 -3.04482,-6.84043 -2.990837,-18.22725 1.499566,-23.66439 13.114382,-15.87952 28.936221,-30.01228 44.154439,-44.44301 17.35368,-16.45571 35.269486,-32.43534 52.789889,-48.75189 5.07359,-4.72491 9.23824,-6.07708 15.38346,-0.80083 32.82254,28.18137 66.05679,55.97838 98.89451,84.14575 4.85714,4.16635 8.97872,10.36805 13.74881,16.71689 -0.13623,9.45045 -0.91246,16.62584 -2.41075,24.80764 -9.42544,6.1787 -17.93133,15.27911 -27.65004,17.2889 -12.92855,2.67365 -27.28261,-0.17587 -41.52015,-1.35666 -4.3655,-0.24351 -8.23514,0.21709 -13.05933,0.68908 -6.91555,0.34745 -12.87646,0.68346 -20.06089,1.11152 -3.6116,0.55766 -5.9997,1.02328 -8.29588,1.47281 0.092,-0.0166 0.22845,0.0925 -0.3806,-0.65653 -21.18807,-1.20796 -41.76727,-1.66688 -62.346418,-2.1258 z"
      id="path3"
      style="display:inline;stroke-width:2.19205" />
   <path
      fill="#3cc50d"
      opacity="1"
      stroke="none"
      d="m 360.25358,169.81488 c 1.02599,-1.35764 3.11267,-2.45012 4.0693,-3.41438 2.8674,-2.24345 4.14706,-2.98688 5.51459,-4.02824 14.09697,-10.73442 13.19236,-9.51153 25.88296,2.02801 29.01335,26.38176 57.36351,53.36481 86.95601,79.21102 11.64367,10.16954 14.70376,22.19051 8.75447,33.37213 -6.20877,11.66945 -17.06868,22.10708 -34.75657,20.96737 -2.68246,-0.17297 -5.39304,0.004 -10.18191,-0.006 -18.83306,0.2975 -35.57492,0.62066 -53.21186,0.87826 -9.50693,-0.24364 -18.25526,0.45129 -27.80764,0.14873 -4.11366,0.21311 -4.35131,-0.16303 -9.48237,-0.006 -4.68396,-0.36874 -6.17826,-0.43865 -8.69065,-0.518 -10.36701,-0.32747 -20.80818,0.45104 -31.11918,-0.3036 -10.27359,-0.7519 -20.88035,-1.70523 -30.46804,-4.7633 -6.37223,-2.03241 -11.44262,-7.9169 -17.15426,-12.89067 -1.51681,-9.06677 -2.84729,-17.62873 -3.88228,-25.00963 21.95239,-18.96372 44.00812,-38.34135 65.11749,-57.23391 10.36517,-9.27664 17.85557,-16.57608 27.80829,-26.22198 z"
      id="path4"
      style="display:inline;stroke-width:2.19205" />
   <path
      fill="#47465d"
      opacity="1"
      stroke="none"
      d="m 264.61217,254.91671 c 1.33045,8.25331 2.66093,16.50663 4.02684,26.53971 1.21947,29.80764 2.40345,57.83546 3.67601,87.96222 26.26887,-18.12824 50.27473,-34.85172 74.50691,-51.30791 6.11149,-4.15033 10.195,-11.93058 9.14,-19.24911 2.61062,0.16237 5.97124,0.0122 9.48732,0.0395 0.78052,4.08754 0.78052,7.24761 0.78052,10.5228 7.63485,-3.68469 14.42327,-6.96094 20.9587,-9.42469 -6.64799,6.70919 -12.88568,12.75078 -19.46835,18.47448 -17.53405,15.24601 -35.21659,30.35529 -52.8401,45.51896 -12.55847,10.04345 -25.16769,20.03729 -37.59159,30.21233 -1.15811,0.94847 -1.68423,3.07139 -1.5909,4.6045 1.34723,22.12193 2.65203,44.2491 4.43623,66.34462 0.54565,6.75718 2.51036,13.42263 4.08231,21.44147 h -28.95078 -30.51465 c 9.88421,-25.13541 6.71808,-50.83393 9.5455,-75.99155 2.00518,-17.84171 -7.22219,-28.62737 -20.94452,-38.5031 -2.61939,-1.88508 -5.26918,-3.73636 -8.88519,-6.59169 -4.76315,-5.55749 -8.61865,-10.08009 -12.31644,-14.70371 -15.97723,-19.97786 -38.29079,-33.58614 -59.94326,-47.84017 -0.0139,0.0363 -0.0871,0.0859 -0.0871,0.0859 2.38805,-0.4656 4.06686,-1.28587 8.41621,-1.53206 7.94529,3.19196 14.63852,6.51916 21.60136,9.97804 -0.24203,-4.35623 -0.42821,-7.8434 -0.61433,-11.19421 3.86959,-0.46056 7.82107,-1.60317 12.04067,-0.51526 -1.31579,9.36682 1.57064,15.76589 8.8722,20.68991 18.57402,12.5258 36.58801,25.71698 56.56722,39.87571 1.34387,-26.45169 2.62176,-51.60519 3.89967,-76.7587 0.77616,-7.947 1.55234,-15.89399 2.07791,-24.80671 -0.0139,-8.84034 0.86594,-16.76009 0.18373,-24.57047 -0.33781,-3.8683 -2.59993,-8.36128 -5.6246,-11.15468 -15.63697,-14.44127 -32.38079,-29.27306 -48.44954,-44.20954 3.65584,0.006 7.63107,-0.15962 13.0135,0.19956 14.20386,9.41665 26.88477,18.88757 41.57587,29.62083 l 0.15432,-29.60768 c 5.39661,-0.0711 10.75459,0.20495 17.20831,0.30095 1.05697,9.25741 0.94123,18.38615 0.94123,28.64274 17.53674,-5.93074 26.3098,-19.49745 38.01893,-29.01543 3.8233,-0.0454 7.72369,-0.47641 12.28515,0.29923 -14.77808,14.72079 -30.80278,29.31855 -46.13552,43.3785 -2.07191,1.89995 -3.98839,4.93919 -3.95601,7.51029 0.10365,8.23046 0.41626,16.52613 0.41626,24.73439 z"
      id="path5"
      style="display:inline;stroke-width:2.19205" />
   <path
      fill="#48b1ff"
      opacity="1"
      stroke="none"
      d="m 132.21986,302.92909 c 21.63934,14.29031 43.9529,27.89859 59.93013,47.87645 3.69779,4.62362 7.55329,9.14622 11.76324,14.0322 -1.58395,0.98905 -3.5854,2.18532 -5.60803,2.21481 -3.32102,0.0483 -6.66458,-0.60847 -9.98344,-1.05797 -34.22614,-4.63495 -63.69954,8.07775 -93.543591,20.07538 -35.299743,14.19094 -51.05189,7.95434 -75.019663,-11.84308 -8.581141,-7.08793 -8.617446,-17.29785 -0.19184,-25.41445 16.448537,-15.84526 33.653119,-32.12941 50.327206,-48.53687 20.633456,-0.2458 40.748888,0.89513 61.971318,2.04846 0.64331,0.6944 0.35467,0.60507 0.35467,0.60507 z"
      id="path6"
      style="display:inline;stroke-width:2.19205" />
   <path
      fill="#48b1ff"
      opacity="1"
      stroke="none"
      d="m 315.41908,363.51873 c 16.54432,-15.30702 34.76699,-29.79901 52.30104,-45.04502 6.58267,-5.7237 12.32931,-11.60161 19.52861,-18.51892 2.68158,-0.98142 5.04975,-1.10591 6.92693,-1.06673 16.74185,-0.32316 33.48371,-0.64632 51.2419,-0.82088 11.76168,11.04136 22.48257,21.95356 33.26335,32.81816 5.03103,5.0702 10.52608,9.803 15.20082,15.11853 9.99493,11.36504 6.78304,21.09785 -5.13107,30.94227 -18.20088,15.0389 -39.45457,15.86068 -61.65594,13.88903 -5.35296,-0.47544 -10.4452,-4.09875 -15.47044,-6.57799 -12.41166,-6.12363 -24.53395,-12.74385 -37.17189,-18.45672 -3.79755,-1.71666 -8.90508,-1.44583 -13.42044,-1.49406 -14.66253,-0.15659 -29.83023,-0.57913 -45.57429,-0.71061 z"
      id="path7"
      style="display:inline;stroke-width:2.19205" />
</svg>