<svg viewBox="0 0 512 512">
  <g>
    <path
      fill="currentColor"
      d="m 265.75429,288.78721 c -1.20978,0.12349 -3.32084,0.83057 -6.92596,2.18283 -7.19002,2.69691 -13.15432,3.86766 -31.35336,6.1516 -38.69205,4.85578 -69.19795,15.99647 -102.29748,37.35831 -7.13426,4.60431 -16.03018,10.33617 -19.76841,12.73892 -3.73823,2.40278 -9.311297,5.40912 -12.383032,6.68006 -13.09944,5.42006 -45.961128,13.3527 -64.544458,15.57962 -14.052219,1.68394 -19.4578091,3.07574 -19.4578091,5.01059 0,1.3558 17.5360651,1.59322 120.8687891,1.63497 99.2357,0.0402 120.87094,-0.2163 120.87094,-1.43006 0,-0.81311 -2.19612,-3.20981 -4.87901,-5.3255 -2.68289,-2.11566 -5.46834,-4.36242 -6.19044,-4.99333 -6.1317,-5.35743 -23.2091,-13.8713 -35.76432,-17.82931 -5.51105,-1.73736 -6.00934,-2.1537 -4.78841,-4.01408 0.74936,-1.14186 3.40117,-3.25273 5.89061,-4.69135 8.52088,-4.92421 8.73387,-5.12664 7.08988,-6.71242 -1.92238,-1.85433 -15.88512,-2.57978 -22.38262,-1.16259 -4.04826,0.88295 -5.01275,0.79095 -5.01275,-0.47238 0,-2.0296 -2.62488,-1.97229 -11.24847,0.24158 -3.86552,0.99235 -9.14762,2.28546 -11.7381,2.87305 -5.86984,1.33135 -16.361,6.35965 -25.80786,12.37224 l -7.21715,4.5943 4.12624,-4.18232 c 10.79883,-10.9446 39.77445,-25.19588 62.93322,-30.95218 7.21991,-1.7946 18.69809,-4.99529 25.50805,-7.1136 6.80998,-2.11829 16.62679,-4.93986 21.81534,-6.27025 10.85446,-2.78314 24.17506,-8.81613 24.17506,-10.94865 0,-0.98422 -0.30872,-1.44354 -1.51849,-1.32005 z" />
    <path
      fill="currentColor"
      d="m 306.84627,160.78324 c -1.72726,0.18959 -4.0813,2.65561 -6.60457,7.14165 l -3.95584,7.0338 -5.26079,-4.9696 c -2.89361,-2.73301 -6.1081,-5.89881 -7.14165,-7.03381 -1.03356,-1.13498 -3.39464,-2.06204 -5.24785,-2.06204 h -3.36915 l 0.77866,7.95913 c 0.42805,4.37786 1.00604,8.79359 1.28554,9.81411 0.30777,1.12366 -1.31165,3.31825 -4.10467,5.56276 -3.01529,2.42317 -6.3029,7.05346 -9.49919,13.37307 -7.10762,14.05305 -10.40852,17.69653 -20.05097,22.14106 -6.80268,3.13553 -8.31503,4.3288 -8.31503,6.56142 0,1.50112 0.79586,3.03468 1.76869,3.40798 0.97285,0.37332 1.76871,1.91749 1.76871,3.42954 0,3.49054 2.11241,5.06188 5.54119,5.57786 1.5405,0.23183 4.39615,0.37059 6.2271,0.48316 2.03903,0.12531 4.98711,-0.0264 10.6359,-0.0518 5.61386,-0.0253 36.62972,-5.72954 37.94499,-5.19393 1.08438,0.4416 1.55948,3.16209 1.55948,8.93839 v 8.30209 l -5.05588,-2.82561 c -4.44521,-2.48549 -5.47531,-2.65317 -8.54798,-1.38045 -3.99212,1.6536 -4.38641,3.33505 -1.43221,6.12358 5.50478,5.19609 8.72159,11.07917 13.04736,23.86445 l 3.38641,10.00608 -4.23624,-3.70349 c -2.33003,-2.03689 -5.15774,-5.20175 -6.28318,-7.0338 -3.25209,-5.29383 -5.01932,-4.16892 -6.69516,4.26213 -0.83117,4.17637 -1.19938,8.09536 -0.81964,8.70974 0.37971,0.6144 -0.0133,1.70184 -0.87357,2.41578 -1.1887,0.98655 -2.22393,0.59433 -4.3182,-1.63495 -2.82612,-3.00823 -5.88416,-3.8935 -5.88416,-1.70399 0,0.6761 3.23493,11.95342 7.18695,25.05939 6.59367,21.8664 11.65055,33.93894 15.58609,37.20517 1.88043,1.56059 23.46595,4.00332 31.7028,4.25565 3.32001,0.10171 -8.30863,1.41595 -21.783,1.90674 l -24.4986,0.89298 -7.58381,8.06051 c -4.17108,4.43387 -7.60539,8.72514 -7.63344,9.53585 -0.0402,1.16116 13.09595,1.47536 61.89357,1.47536 53.97505,0 62.03335,-0.22747 62.62477,-1.7687 1.01911,-2.65576 4.96048,-2.13502 8.8974,1.17769 3.98536,3.35346 5.96957,3.6733 7.95482,1.28123 1.16773,-1.40705 8.93209,-0.84845 49.79094,-1.0073 24.16445,-0.094 28.98288,-1.00513 28.58601,-3.06502 -0.64097,-3.32688 0.53611,2.32613 -47.63399,-9.57468 -33.34535,-8.23822 -30.71726,-9.48329 -38.58993,-16.39063 -9.38984,-8.23848 -9.37471,-8.19269 -13.51974,-12.04654 -8.98475,-8.3536 -23.14192,-24.08077 -26.13787,-33.4866 l -3.00462,-9.43448 4.47135,5.19824 c 10.23232,11.8942 9.4954,-1.57685 -1.24672,-22.78381 -11.81529,-23.32557 -12.43184,-27.48606 -3.16208,-21.35162 8.37945,5.54526 7.69677,1.16449 -2.19147,-14.0525 -3.75556,-5.77941 -6.66952,-11.22546 -6.47515,-12.10262 1.08882,-4.91149 -15.69409,-29.88165 -18.79562,-27.96481 -0.52049,0.32169 -1.27293,-0.89472 -1.67379,-2.70481 -2.23508,-10.09264 -4.31967,-14.30978 -8.88447,-17.97814 -4.17597,-3.35591 -7.79522,-9.14856 -9.79684,-15.67885 -0.48446,-1.58049 -1.2953,-2.28579 -2.33166,-2.17205 z m -32.27007,39.02347 c 1.35243,0 -0.23045,5.05036 -1.93478,6.17317 -1.87218,1.23334 -4.26213,1.10394 -4.26213,-0.23079 0,-1.38095 4.75644,-5.94238 6.19691,-5.94238 z" />
  </g>
</svg>